<?xml version="1.0" standalone="no"?>
<!DOCTYPE svg PUBLIC "-//W3C//DTD SVG 1.1//EN" "http://www.w3.org/Graphics/SVG/1.1/DTD/svg11.dtd" >
<svg xmlns="http://www.w3.org/2000/svg" xmlns:xlink="http://www.w3.org/1999/xlink" version="1.1">
<metadata></metadata>
<defs>
<font id="madavemadison_avenue" horiz-adv-x="1138" >
<font-face units-per-em="2048" ascent="1638" descent="-410" />
<missing-glyph horiz-adv-x="942" />
<glyph horiz-adv-x="0" />
<glyph unicode="&#xd;" horiz-adv-x="942" />
<glyph unicode=" "  horiz-adv-x="942" />
<glyph unicode="&#x09;" horiz-adv-x="942" />
<glyph unicode="&#xa0;" horiz-adv-x="942" />
<glyph unicode="!" horiz-adv-x="405" d="M25 1550q0 -18 25.5 -309t51 -580.5t27.5 -289.5h47q12 147 27 297q25 281 49 561q14 160 29 321q0 43 -6.5 65.5t-32.5 22.5h-179q-25 0 -31.5 -26.5t-6.5 -61.5zM41 0v209h223v-209h-223z" />
<glyph unicode="&#x22;" horiz-adv-x="516" d="M0 1585q0 18 5 27.5t11 19.5h119q10 -12 13.5 -17t3.5 -30v-287h-48q-35 86 -51 132q-53 139 -53 155zM266 1298v287q0 18 5 27.5t12 19.5h118q10 -12 13.5 -17t3.5 -30q0 -23 -51 -155q-16 -45 -54 -132h-47z" />
<glyph unicode="#" horiz-adv-x="1191" d="M0 487v150h199l75 362h-274v150h303l88 428h150l-88 -428h315l88 428h150l-86 -428h172v-150h-203l-74 -362h277v-150h-308l-86 -426h-151l86 426h-314l-86 -426h-151l88 426h-170zM350 637h314l75 362h-315z" />
<glyph unicode="$" horiz-adv-x="1234" d="M0 209l57 151q94 -55 197.5 -79.5t237.5 -24.5v197.5t2 230.5q0 82 -2 84q-176 59 -353 121q-139 100 -139 282q0 166 147 265q158 104 345 104v98h120v-98q100 0 249 -31.5t167 -62.5l-55 -123q-53 37 -157.5 59.5t-203.5 22.5v-449q190 -72 381 -143q148 -103 148 -285 q0 -193 -162 -317q-154 -119 -367 -119v-92h-120v92q-102 0 -265 33q-186 39 -227 84zM205 1190q0 -88 84 -141q68 -43 203 -70v426q-68 0 -162 -51q-125 -68 -125 -164zM612 256q135 0 222 57q98 66 98 193q0 115 -131 178q-20 10 -189 61v-489z" />
<glyph unicode="%" horiz-adv-x="1699" d="M0 0l1321 1638h205l-1321 -1638h-205zM0 1253q0 197 113 308q94 94 219 94t219 -92q115 -113 115 -310q0 -184 -80 -301q-90 -133 -254 -133t-254 133q-78 117 -78 301zM117 1253q0 -156 56 -242.5t159 -86.5q96 0 155.5 87.5t59.5 241.5q0 98 -39 183q-57 125 -176 125 q-117 0 -174 -125q-41 -88 -41 -183zM860 420q0 197 113 307q94 94 219 94t219 -92q115 -112 115 -309q0 -184 -80 -301q-90 -133 -254 -133t-254 133q-78 117 -78 301zM977 420q0 -156 56.5 -243t158.5 -87q96 0 155.5 88t59.5 242q0 98 -39 182q-57 125 -176 125 q-117 0 -174 -125q-41 -88 -41 -182z" />
<glyph unicode="&#x26;" horiz-adv-x="1431" d="M0 487q0 170 76 279q29 41 297 229q-106 98 -131 138q-35 55 -35 153q0 162 140 265.5t370 103.5q16 0 82.5 -11.5t87.5 -21.5v-145q-47 18 -133 18q-129 0 -213 -43q-106 -55 -107 -166q0 -117 66 -176q80 -74 276 -74q8 -31 8 -71q0 -27 -2 -48.5t-6 -37.5 q-248 0 -383 -78q-162 -94 -162 -299q0 -156 96.5 -258.5t250.5 -102.5q131 0 196 37q43 25 94 98q-16 33 -23 72t-7 119q0 201 140 333t353 132v-135q-145 0 -227 -95q-74 -86 -74 -217q0 -188 86 -266q72 -63 223 -63v-146q-219 0 -313 56q-31 18 -80 90q0 -68 -141 -125 q-119 -47 -285 -47q-236 0 -378 140t-142 363z" />
<glyph unicode="'" horiz-adv-x="399" d="M92 1434v204h205v-204l-119 -193h-76v45l52 103v45h-62z" />
<glyph unicode="(" horiz-adv-x="577" d="M47 311v1016q0 248 162 385q135 115 307 115v-146q-197 0 -262 -151q-37 -86 -37 -283v-856q0 -188 37 -276q66 -158 262 -158v-145q-170 0 -305 114q-164 139 -164 385z" />
<glyph unicode=")" horiz-adv-x="583" d="M0 -43q197 0 262 156q37 86 37 278v856q0 197 -37 283q-66 152 -262 151v146q170 0 305 -115q164 -139 164 -385v-1016q0 -248 -162 -385q-135 -115 -307 -114v145z" />
<glyph unicode="*" horiz-adv-x="811" d="M61 1196l48 143q160 -55 231 -98l-21 250h146q0 -55 -7 -116.5t-18 -131.5q43 23 104.5 47.5t133.5 48.5l45 -143q-125 -39 -250 -55q59 -49 172 -189l-119 -86q-61 84 -137 215q-72 -135 -131 -215l-117 86q117 145 166 189q-129 24 -246 55z" />
<glyph unicode="+" horiz-adv-x="1148" d="M92 639v168h397v399h170v-399h400v-168h-400v-401h-170v401h-397z" />
<glyph unicode="," horiz-adv-x="417" d="M92 0v204h205v-204l-119 -193h-76v45l52 103v45h-62z" />
<glyph unicode="-" horiz-adv-x="731" d="M92 440v181h553v-181h-553z" />
<glyph unicode="." horiz-adv-x="417" d="M92 0v205h205v-205h-205z" />
<glyph unicode="/" horiz-adv-x="1628" d="M0 0l1321 1638h205l-1321 -1638h-205z" />
<glyph unicode="0" horiz-adv-x="1468" d="M0 801q0 317 152 557q188 297 536 297q362 0 545 -295q143 -231 143 -559q0 -356 -139 -561q-174 -256 -549 -256q-356 0 -536 256q-152 215 -152 561zM236 801q0 -291 90 -459q113 -213 362 -213q223 0 346 213q107 187 107 459q0 289 -94 469q-117 223 -359 223 q-240 0 -356 -223q-96 -184 -96 -469z" />
<glyph unicode="1" horiz-adv-x="577" d="M0 1317v90q104 25 185 74t143 157h135v-1638h-215v1317h-248z" />
<glyph unicode="2" horiz-adv-x="1284" d="M0 0v53q76 256 135 353q92 150 301 272q160 90 322 182q205 147 205 336q0 129 -92.5 211t-243.5 82q-201 0 -297 -119q-74 -90 -117 -299l-195 55q0 66 43 166q63 147 187 240q164 123 414 123q213 0 372.5 -132t159.5 -339q0 -178 -139 -326q-98 -104 -287 -203 q-119 -59 -236 -118q-43 -23 -145 -119q-137 -131 -137 -209q0 -2 18 -37h926v-172h-1194z" />
<glyph unicode="3" horiz-adv-x="1357" d="M0 319l147 119q53 -150 211 -233q127 -68 267 -68q184 0 299.5 90t115.5 250q0 129 -104 219q-96 82 -207 82h-186v172h129q160 0 225.5 63.5t65.5 217.5q0 113 -103 194q-88 72 -229 72q-190 0 -316 -156q-102 -127 -102 -241l-182 92q0 147 157 293q184 170 447 170 q172 0 317 -68q229 -106 230 -338q0 -104 -43 -182q-18 -33 -166 -188q88 -57 176 -115q121 -102 121 -268q0 -199 -148 -340q-178 -172 -497 -172q-252 0 -430 112q-145 92 -195 223z" />
<glyph unicode="4" horiz-adv-x="1388" d="M0 375v182q16 123 35 248q37 260 78 452q55 268 116 381h201q-2 -20 -55 -217q-70 -256 -96 -397q-49 -252 -50 -436q0 -23 19 -47h633v966l215 131v-1097h198v-166h-198v-375h-215v375h-881z" />
<glyph unicode="5" horiz-adv-x="1339" d="M0 279l158 114q135 -250 460 -250q186 0 308 142q96 113 96 290q0 127 -86 228q-119 139 -356 139q-145 0 -252 -55q-86 -61 -170 -123l-113 55l113 819h1013v-168h-839l-68 -458q72 35 167 61.5t159 26.5q301 0 478 -144.5t177 -392.5q0 -266 -196 -428 q-184 -152 -469 -151q-190 0 -379 90q-201 96 -201 205z" />
<glyph unicode="6" horiz-adv-x="1382" d="M0 762q0 395 218 644t591 249q94 0 307 -39v-168q-84 16 -129 25q-139 25 -188 24q-252 0 -410 -190q-168 -203 -168 -553q0 -344 168 -502q131 -123 346 -123q111 0 219 98q139 127 140 332q-20 119 -56 176q-104 178 -348 178q-129 0 -246 -65q-109 -76 -137 -94v159 q0 37 123 95q135 63 262 63q219 0 391 -110q222 -142 222 -406q0 -225 -155 -398t-351 -173h-167h-54q-289 35 -439 249q-139 201 -139 529z" />
<glyph unicode="7" horiz-adv-x="1320" d="M0 1063v575h1253q-88 -293 -141 -446q-84 -238 -199 -487q-129 -281 -356 -705h-283q213 313 381 653q117 233 227.5 513t123.5 304h-764q-80 0 -80 -73v-334h-162z" />
<glyph unicode="8" horiz-adv-x="1394" d="M0 459q0 -231 180 -357q172 -119 467 -118q264 0 445 116q203 131 202 359q0 152 -77 246q-57 68 -218 161q100 74 155.5 159t55.5 220q0 162 -147 281q-160 129 -416 129q-254 0 -416 -129q-147 -119 -147 -281q0 -135 55 -219l156 -160q-160 -92 -215 -159 q-80 -96 -80 -248zM231 459q0 170 121 256q109 76 295 76q184 0 293 -76q123 -86 123 -256q0 -143 -133 -234q-121 -82 -283 -82q-164 0 -282 80q-133 90 -134 236zM301 1233q0 104 90 182q98 84 256 84q156 0 251 -80t95 -186q0 -119 -111.5 -203t-234.5 -84 q-121 0 -229 82q-117 88 -117 205z" />
<glyph unicode="9" horiz-adv-x="1400" d="M0 1083q0 225 154.5 398.5t351.5 173.5h166.5h54.5q289 -35 438 -250q139 -201 140 -528q0 -395 -218.5 -644t-590.5 -249q-66 0 -194 24.5t-206 65.5v168q78 -45 217 -76q115 -25 193 -25q252 0 409 191q168 203 168 553q0 344 -168 501q-131 123 -346 123 q-111 0 -219 -98q-139 -127 -139 -332q20 -119 55 -176q104 -178 348 -178q129 0 246 66q109 76 137 94v-160q0 -37 -129 -97.5t-256 -60.5q-219 0 -391 111q-221 141 -221 405z" />
<glyph unicode=":" horiz-adv-x="393" d="M92 512v205h205v-205h-205zM92 922v204h205v-204h-205z" />
<glyph unicode=";" horiz-adv-x="417" d="M92 0v205h205v-205l-119 -193h-76v46l52 102v45h-62zM92 410v204h205v-204h-205z" />
<glyph unicode="&#x3c;" horiz-adv-x="1179" d="M92 641v168l971 410v-179l-770 -315l770 -319v-181z" />
<glyph unicode="=" horiz-adv-x="1155" d="M92 418v168h967v-168h-967zM92 862v168h967v-168h-967z" />
<glyph unicode="&#x3e;" horiz-adv-x="1161" d="M92 225v181l768 319l-768 315v179l971 -410v-168z" />
<glyph unicode="?" horiz-adv-x="829" d="M0 1466v156q31 14 117 25q27 2 78 8q260 0 402 -109t142 -295q0 -170 -106 -305q-76 -78 -150 -155q-88 -125 -116 -254q-12 -86 -25 -170h-121q0 211 72 381q6 16 135 253q74 137 74 250q0 133 -101 191q-78 45 -211 45q-61 0 -104 -5t-86 -16zM172 0v193h223v-193h-223 z" />
<glyph unicode="@" horiz-adv-x="1744" d="M0 766q0 215 88 403q106 236 301 361t473 125q217 0 387 -88q86 -45 153.5 -108.5t119.5 -153.5q82 -145 82 -328q0 -252 -177 -447q-160 -176 -346 -176q-57 0 -95 18.5t-56 53.5q-11 21 -17 74q-53 -61 -123.5 -102.5t-142.5 -41.5q-80 0 -149 45q-78 45 -119 140 q-47 94 -47 204q0 141 69.5 277.5t178.5 208.5q51 33 103 51t101 18q74 0 142.5 -40.5t120.5 -120.5l28 135h156l-125 -582l-27 -135q0 -23 19.5 -40t42.5 -17q47 0 121 53q100 70 157.5 187.5t57.5 240.5q0 145 -74 269t-219.5 202t-327.5 78q-203 0 -371 -95.5 t-262 -276.5t-94 -378q0 -207 93 -363.5t268.5 -230t388.5 -73.5q227 0 381.5 76.5t230.5 185.5h156q-41 -88 -152 -187q-102 -90 -252.5 -147t-361.5 -57q-190 0 -350 48t-280 148.5t-177 231.5q-74 170 -74 354zM494 735q0 -119 54 -184.5t132 -65.5q49 0 102 27 q55 33 102.5 87t79 144.5t31.5 178.5q0 121 -58 185t-142 64q-55 0 -105 -30q-49 -25 -94 -88.5t-76 -153.5q-26 -96 -26 -164z" />
<glyph unicode="A" horiz-adv-x="1609" d="M16 0h228q88 430 231 809q151 399 309 600q98 -123 198.5 -342t184.5 -481q-39 -4 -92 -5t-92 -1q-170 0 -273.5 1t-205.5 5q-39 -98 -47 -126t-8 -61h774q59 -201 102 -399h227q-72 451 -231.5 851t-429.5 787h-213q-264 -379 -427 -787.5t-235 -850.5z" />
<glyph unicode="B" horiz-adv-x="1425" d="M41 0v1638h776q195 0 344.5 -122.5t149.5 -282.5q0 -141 -82 -232q-45 -51 -162 -116q109 -53 180 -140q101 -120 101 -280q0 -233 -201 -359q-172 -106 -432 -106h-674zM276 164q0 -2 44.5 -4t95.5 -2q188 0 247.5 1t106.5 5q117 0 195 45q133 78 133 270 q0 160 -115 252q-106 84 -268 84h-375v180h430q150 0 234 92q63 70 63 146q0 115 -97.5 177.5t-224.5 62.5h-469v-1309z" />
<glyph unicode="C" horiz-adv-x="1179" d="M2 815q0 -358 217 -584q237 -247 665 -247h3h69q41 0 75 3t63 31v160q-94 -24 -191 -24h-8q-270 0 -444 157q-199 180 -199 504q0 317 188 498q174 166 445 166q96 0 209 -27v160q-29 29 -75 36t-132 7q-428 0 -668 -252q-217 -230 -217 -588z" />
<glyph unicode="D" horiz-adv-x="1517" d="M39 -8v1655q4 -2 30.5 -2h55.5h27h24h62.5t46.5 2q322 0 536 -54q281 -70 430 -235q176 -195 176 -531q0 -324 -159 -528q-129 -166 -350 -246q-170 -61 -340 -61h-539zM285 166q0 -4 47 -4q31 0 63.5 1t59.5 3q356 0 528 139q197 160 197 522q0 266 -138 426 q-190 223 -630 224h-127v-1311z" />
<glyph unicode="E" horiz-adv-x="1234" d="M39 1255q0 381 2 383h1026v-174h-780v-1298q4 -2 106.5 -2h153.5h90h82h72h59h49h41h33h24h62.5t32.5 2v-166h-1051v287t-1 438t-1 530zM369 905v170h766v-170h-766z" />
<glyph unicode="F" horiz-adv-x="1222" d="M39 1255q0 381 2 383h1026v-168h-780v-1470h-246v287t-1 438t-1 530zM369 911v170h766v-170h-766z" />
<glyph unicode="G" horiz-adv-x="1513" d="M18 821q0 -354 215 -583q240 -254 664 -254q117 0 291 16t203 45v1034h-545v-168h319v-716q-125 -29 -237 -29q-287 0 -465 158q-197 174 -197 497q0 334 192.5 501t540.5 167q111 0 238 -19v158q-33 16 -131 21.5t-209 5.5q-424 0 -661 -250q-218 -230 -218 -584z" />
<glyph unicode="H" horiz-adv-x="1456" d="M41 0v1638h223v-1638h-223zM350 907v164h764v567h223v-1638h-223v907h-764z" />
<glyph unicode="I" horiz-adv-x="380" d="M41 0v1638h223v-1638h-223z" />
<glyph unicode="J" horiz-adv-x="872" d="M29 0v176h198q139 0 224 148q78 137 77 325v989h228l2 -1030q0 -332 -176 -483q-145 -125 -408 -125h-145z" />
<glyph unicode="K" horiz-adv-x="1591" d="M41 0v1638h238v-594q170 0 420.5 177.5t449.5 416.5h272q-16 -72 -227 -282q-219 -221 -348 -287q190 -152 402 -499t241 -570h-236q-18 86 -110 272q-106 215 -234 387q-156 211 -293 281q-70 -53 -167 -88q-18 -6 -170 -55v-797h-238z" />
<glyph unicode="L" horiz-adv-x="1038" d="M41 0v1638h223v-1472h676v-166h-899z" />
<glyph unicode="M" horiz-adv-x="1855" d="M41 0h201v1311q51 -12 94 -66q135 -164 276 -438q125 -242 201 -469q23 -70 39 -93.5t37 -23.5q35 0 49 31q17 51 27 86q76 225 200 469q139 272 277 438q43 53 94 66v-1311h201v1638h-254q-61 0 -276.5 -318.5t-317.5 -549.5q-104 233 -314 545q-217 324 -280 323h-254 v-1638z" />
<glyph unicode="N" horiz-adv-x="1511" d="M41 0v1638h227q70 0 336 -239q236 -213 572 -561v800h215v-1638h-215v393q0 55 -144.5 240.5t-265.5 298.5q-133 127 -266 256q-139 117 -256 168v-1356h-203z" />
<glyph unicode="O" horiz-adv-x="1720" d="M0 817q0 358 219 594q227 244 594 244q330 0 571.5 -246t241.5 -592q0 -338 -196 -569q-223 -264 -617 -264q-391 0 -614 264q-199 233 -199 569zM250 817q0 -283 135 -461q151 -200 425 -200h3q268 0 422 198q141 182 141 463q0 301 -150.5 480.5t-412.5 179.5 t-412.5 -179.5t-150.5 -480.5z" />
<glyph unicode="P" horiz-adv-x="1468" d="M41 0v1638h549q147 0 289 -39q209 -57 331 -176q160 -153 160 -395q0 -348 -244 -518q-205 -143 -536 -143h-35q-80 0 -139.5 7t-79.5 32v165q25 -8 86 -15t158 -7q252 0 395 108q155 118 155 348q0 220 -169 345q-153 112 -377 112h-4h-326v-1462h-213z" />
<glyph unicode="Q" horiz-adv-x="1751" d="M0 801q0 356 236.5 605t605.5 249q340 0 569 -211q244 -226 244 -588q0 -203 -76 -379q-55 -129 -145 -231q-47 -45 -93 -90l224 -172l-160 -168q-57 66 -98 98q-125 100 -246 100q-47 -10 -78 -14q-104 -16 -182 -16q-391 0 -608 256q-193 225 -193 561zM250 817 q0 -276 141 -461q153 -200 419 -200h3q279 0 440 206q152 193 152 482q0 270 -141 446q-154 193 -420 193q-264 0 -429 -184.5t-165 -481.5z" />
<glyph unicode="R" horiz-adv-x="1529" d="M41 0v1638h668q291 0 499 -145q230 -160 230 -422q0 -236 -140 -385q-104 -113 -278 -168q-57 -18 -217 -47q119 -111 366 -203q133 -45 269 -88v-180q-152 0 -408 115q-213 94 -438 239q-205 131 -262 199v166q84 -51 188 -68q63 -10 180 -10q229 0 359.5 109.5 t130.5 320.5q0 178 -148 289q-137 102 -331 102h-437v-1462h-231z" />
<glyph unicode="S" horiz-adv-x="1155" d="M0 29v180q35 -16 126 -27.5t220 -11.5q240 0 346 49q133 61 133 221q0 164 -385 326q-219 92 -303 162q-137 113 -137 289q0 207 207 331q176 106 389 107h158q29 0 129 -14.5t123 -28.5v-158h-9q-21 0 -71 6q-160 23 -254 23q-195 0 -307 -56q-131 -66 -132 -194 q0 -131 216 -229q199 -88 399 -177q215 -131 215 -348q0 -233 -172 -360q-182 -135 -545 -135q-100 0 -207.5 13t-138.5 32z" />
<glyph unicode="T" horiz-adv-x="1216" d="M0 1466v172h1116v-172h-448v-1466h-219v1466h-449z" />
<glyph unicode="U" horiz-adv-x="1449" d="M41 608q0 -252 123 -411q164 -213 520 -213t520 211q125 162 125 413v1030h-231v-964q0 -305 -162 -430q-100 -78 -252 -78q-207 0 -313 139q-98 129 -99 369v964h-231v-1030z" />
<glyph unicode="V" horiz-adv-x="1548" d="M0 1638h227q96 -467 211 -809q137 -408 289 -600q147 188 287 598q119 354 213 811h227q-78 -477 -209 -843q-154 -424 -411 -795h-213q-254 365 -410 795q-135 377 -211 843z" />
<glyph unicode="W" horiz-adv-x="2764" d="M0 1638h227q96 -467 211 -809q137 -408 289 -600q129 164 246 470.5t176 633.5q0 -80 43 -230.5t80 -205.5q-82 -252 -178 -453q-111 -229 -260 -444h-213q-254 365 -410 795q-135 377 -211 843zM1227 1638h227q96 -467 211 -809q137 -408 289 -600q147 188 287 598 q119 354 213 811h227q-78 -477 -209 -843q-154 -424 -412 -795h-213q-254 365 -409 795q-135 377 -211 843z" />
<glyph unicode="X" horiz-adv-x="1536" d="M0 -6h229q55 186 177 377q92 145 204 270q94 104 113 104q18 0 108 -100q106 -117 201 -268q121 -193 176 -377h232q-33 115 -58 182q-74 203 -153 316q-127 180 -230 284q-113 115 -112 136q66 70 145 159q94 104 156 189q49 68 112 204q49 106 72 168h-233 q-98 -201 -244 -397q-135 -182 -172 -182t-172 182q-144 194 -244 397h-233q25 -78 65 -170q57 -133 113 -206q63 -88 151 -187q74 -82 150 -164q0 -18 -113 -133q-100 -100 -231 -284q-78 -113 -152 -318q-25 -68 -57 -182z" />
<glyph unicode="Y" horiz-adv-x="1431" d="M0 0v172q29 -6 61 -6q160 0 347.5 90t187.5 170q-88 98 -195 248q-123 170 -204 346q-31 66 -111 299q-86 254 -86 311q0 6 61 6q84 0 111 -1t49 -5q8 -12 72 -209q72 -223 153 -385q121 -242 289 -409q96 94 183 305q63 154 126 395q16 59 76 311h213 q-43 -330 -178 -667q-168 -418 -412 -668q-297 -303 -669 -303q-8 -10 -27 -10q-16 0 -27.5 2t-19.5 8z" />
<glyph unicode="Z" horiz-adv-x="1290" d="M0 106q111 113 221 226q170 176 301 389q184 299 348 737h-823v180h1124q-70 -227 -118 -354q-76 -197 -183 -385q-43 -76 -86 -149q-96 -162 -190 -304q-127 -188 -211 -272h811v-174h-1171z" />
<glyph unicode="[" horiz-adv-x="577" d="M47 -188v2015h469v-146h-299v-1724h299v-145h-469z" />
<glyph unicode="\" horiz-adv-x="1259" d="M0 1638h205l962 -1638h-204z" />
<glyph unicode="]" horiz-adv-x="583" d="M0 -43h299v1724h-299v146h469v-2015h-469v145z" />
<glyph unicode="^" horiz-adv-x="946" d="M12 1298l348 340h146l366 -340h-182l-258 222l-233 -222h-187z" />
<glyph unicode="_" horiz-adv-x="1191" d="M0 -279h1192v-131h-1192v131z" />
<glyph unicode="`" horiz-adv-x="681" d="M92 1638h242l196 -249h-145z" />
<glyph unicode="a" horiz-adv-x="1198" d="M0 416q0 195 170 308.5t442 113.5h172l7 -156h-252q-129 0 -228.5 -79t-99.5 -187q0 -121 78 -185q93 -75 317 -75h6q199 0 236 55q24 36 24 249v17q0 459 -57 557.5t-323 98.5q-113 0 -213 -19q-70 -12 -136 -35v152q37 33 99 45q102 22 262 22h14q336 0 465 -149 q100 -117 100 -373v-776h-471q-254 0 -389 59q-223 98 -223 357z" />
<glyph unicode="b" horiz-adv-x="1222" d="M41 338v1300h205v-1069q0 -205 30 -290q51 -143 209 -144q213 0 342 160q119 147 119 352q0 264 -162 391q-127 100 -317 101q-37 0 -62.5 -3t-76.5 -16v156q27 8 102.5 22.5t87.5 14.5q242 0 424 -137q227 -171 227 -482q0 -324 -195.5 -517t-500.5 -193 q-197 0 -314.5 94t-117.5 260z" />
<glyph unicode="c" horiz-adv-x="921" d="M0 649q0 283 187.5 474.5t461.5 191.5h178v-180h-120q-195 0 -308 -78q-170 -117 -170 -408t168 -407q113 -78 310 -78h120v-180h-178q-274 0 -461.5 191t-187.5 474z" />
<glyph unicode="d" horiz-adv-x="1259" d="M0 668q0 270 216 454.5t538 184.5h164v331h219v-1638h-531q-94 0 -215 55q-164 74 -264 207q-127 168 -127 406zM248 668q0 -221 94 -338q137 -168 483 -168h93v983h-117q-238 0 -383 -109q-170 -127 -170 -368z" />
<glyph unicode="e" horiz-adv-x="915" d="M0 649q0 283 187.5 474.5t461.5 191.5h178v-180h-120q-180 0 -289 -64q-164 -96 -189 -332h478v-180h-478q27 -233 189 -330q111 -65 284 -65h5h120v-180h-178q-274 0 -461.5 191t-187.5 474z" />
<glyph unicode="f" horiz-adv-x="675" d="M0 1061v151h106v17q0 145 64 245q68 107 266 164h133v-141q-135 -35 -172 -63q-78 -61 -78 -222h259v-151h-259v-1061h-213v1061h-106z" />
<glyph unicode="g" horiz-adv-x="1216" d="M0 274q0 100 74 203q63 88 90 88q8 0 61.5 -41t53.5 -47q-27 -33 -49.5 -70.5t-22.5 -80.5q0 -76 59 -113q45 -29 131 -37l475 70q131 -12 189 -51q67 -48 67 -144q0 -92 -68.5 -156.5t-170.5 -64.5q-20 0 -31 2q23 35 27 41q18 29 18 66q0 49 -38 75.5t-79 26.5 q-82 -20 -135 -29q-155 -28 -274 -28h-8q-172 0 -270.5 74.5t-98.5 215.5zM100 895q0 143 99 264q125 154 352 154q45 113 90 225q76 84 244 84q94 0 94 -82q0 -20 -3 -36.5t-5 -33.5q-231 0 -232 -157q162 -47 259.5 -142.5t97.5 -275.5q0 -205 -148 -324 q-132 -108 -338 -108h-4q-225 0 -365.5 114.5t-140.5 317.5zM326 879q0 -109 78.5 -183.5t189.5 -74.5q119 0 190 63q80 72 80 207q0 127 -96 199q-78 57 -176 57q-129 0 -207 -111q-59 -84 -59 -157z" />
<glyph unicode="h" horiz-adv-x="1216" d="M41 0v1638h211v-1638h-211zM334 1155v129q27 12 87 21.5t134 9.5q309 0 457 -228q114 -177 114 -456q0 -111 -28 -326q-37 -274 -82 -305h-207q41 129 69.5 296t28.5 335q0 283 -110 416q-101 124 -302 124h-3q-70 0 -158 -16z" />
<glyph unicode="i" horiz-adv-x="380" d="M35 1561q0 12 8 21t41 15.5t80 6.5q85 0 108 -25q8 -8 9 -23q0 -41 -40 -92t-83 -51q-35 0 -79 54.5t-44 93.5zM41 0v1298h231v-1298h-231z" />
<glyph unicode="j" horiz-adv-x="651" d="M0 27q18 -4 34.5 -4h33.5q121 0 177 73.5t56 231.5v970h231v-913q0 -250 -100 -381q-111 -145 -315 -145q-43 0 -63.5 6t-53.5 29v133zM295 1561q0 12 8 21t41 15.5t80 6.5q85 0 108 -25q8 -8 9 -23q0 -41 -40 -92t-83 -51q-35 0 -79 54.5t-44 93.5z" />
<glyph unicode="k" horiz-adv-x="1284" d="M41 0v1638h188v-811q135 0 333 138.5t358 332.5h215q-12 -57 -180.5 -227t-274.5 -225q152 -121 318.5 -395.5t189.5 -450.5h-187q-14 70 -88 217q-88 176 -182 305q-123 166 -233 223q-57 -45 -134 -70.5t-135 -43.5v-631h-188z" />
<glyph unicode="l" horiz-adv-x="380" d="M41 0v1638h223v-1638h-223z" />
<glyph unicode="m" horiz-adv-x="2045" d="M41 0v1298h211v-1298h-211zM334 1155v129q27 12 87 21.5t134 9.5q309 0 457 -228q114 -177 114 -456q0 -111 -28 -326q-37 -274 -82 -305h-207q41 129 69.5 296t28.5 335q0 283 -110 416q-101 124 -302 124h-3q-70 0 -158 -16zM1018 1219q43 43 130 69.5t202 26.5 q344 0 495 -236q115 -180 115 -489q0 -121 -25 -289q-35 -231 -88 -301h-207q35 135 70 272q33 174 33 322q0 291 -115 432q-104 129 -295 129q-94 0 -149 -14q-41 -18 -82 -35z" />
<glyph unicode="n" horiz-adv-x="1216" d="M41 0v1298h211v-1298h-211zM334 1155v129q27 12 87 21.5t134 9.5q309 0 457 -228q114 -177 114 -456q0 -111 -28 -326q-37 -274 -82 -305h-207q41 129 69.5 296t28.5 335q0 283 -110 416q-101 124 -302 124h-3q-70 0 -158 -16z" />
<glyph unicode="o" horiz-adv-x="1376" d="M0 676q0 313 217 489q184 150 426 150t424 -148q219 -178 219 -491q0 -289 -158 -479q-176 -213 -485 -213q-319 0 -491 211q-152 186 -152 481zM227 676q0 -246 109.5 -386t306.5 -140q184 0 300 143t116 383q0 152 -78 289q-112 198 -336 198h-2q-225 0 -338 -198 q-78 -137 -78 -289z" />
<glyph unicode="p" horiz-adv-x="1222" d="M41 -410v1708h432q299 0 494 -188q202 -196 202 -522q0 -309 -227 -473q-180 -131 -424 -131q-12 0 -88 14t-102 22v156q47 -12 76.5 -15t76.5 -3q188 0 310 94q155 122 155 380q0 202 -129 353q-137 162 -332 162h-239v-1557h-205z" />
<glyph unicode="q" horiz-adv-x="1222" d="M0 588q0 322 203 520q195 190 493 190h146v-151h-158q-197 0 -329 -155.5t-132 -356.5q0 -246 187 -371q150 -100 364 -100h150v1134h204v-1708h-204v406q-57 0 -130 1t-137 3q-260 0 -436 123q-221 156 -221 465z" />
<glyph unicode="r" horiz-adv-x="995" d="M41 0v1298h213v-1298h-213zM309 1202v53.5t2 42.5l123 17q197 0 324 -109q141 -121 141 -332q0 -133 -11 -181t-38 -60h-197q12 29 19 53q20 80 20 174q0 176 -90 252q-66 55 -176 55q-35 0 -66.5 -5t-48.5 -11q-2 4 -2 51z" />
<glyph unicode="s" horiz-adv-x="970" d="M0 940q0 182 173 278.5t472 96.5q125 0 168 -12q23 -6 49 -33v-135q-5 -2 -16 -2q-30 0 -106 13q-102 17 -122 17q-152 0 -249 -37q-137 -51 -138 -165q0 -109 165 -174.5t325 -129.5q172 -100 172 -282q0 -233 -231 -330q-150 -61 -379 -61h-52q-102 0 -139 3t-76 15 v156q18 0 116.5 -12.5t176.5 -12.5q168 0 254 43q106 53 107 174q0 113 -167 181.5t-329 134.5q-174 98 -174 274z" />
<glyph unicode="t" horiz-adv-x="706" d="M0 1161v137h123v340h223v-340h213v-137h-213v-823q0 -92 45 -135t117 -43q39 0 76 12l32 -156q-41 -18 -81.5 -25t-98.5 -7q-176 0 -258 125q-63 96 -63 245v807h-115z" />
<glyph unicode="u" horiz-adv-x="1216" d="M0 668q0 111 29 325q37 274 82 305h206q-41 -129 -69.5 -295.5t-28.5 -334.5q0 -283 111 -416q102 -125 305 -125q70 0 158 16v-129q-27 -12 -87.5 -21t-134.5 -9q-309 0 -456 227q-115 178 -115 457zM874 0v1298h211v-1298h-211z" />
<glyph unicode="v" horiz-adv-x="1241" d="M0 1298h180q72 -358 168 -641q111 -328 227 -475q119 150 228 473q94 281 168 643h180q-59 -377 -166 -669q-121 -336 -326 -629h-167q-205 293 -326 629q-106 293 -166 669z" />
<glyph unicode="w" horiz-adv-x="2224" d="M0 1298h180q72 -358 168 -641q111 -328 227 -475q102 129 194.5 371t139.5 504q0 -61 35 -182t64 -164q-68 -203 -142 -361q-84 -176 -207 -350h-167q-205 293 -326 629q-106 293 -166 669zM971 1298h180q76 -371 168 -641q111 -326 229 -475q119 150 228 473 q94 281 168 643h180q-59 -377 -166 -669q-121 -336 -326 -629h-168q-203 289 -325 629q-106 295 -168 669z" />
<glyph unicode="x" horiz-adv-x="1234" d="M0 -6h182q43 147 140 299q72 113 163 215q74 82 88 82q12 0 84 -80q90 -100 160 -211q96 -154 139 -299h185q-27 90 -45 143q-57 158 -123 250q-109 154 -180 228q-90 92 -91 106q51 55 115 127q78 86 123 147.5t92 161.5q33 70 55 135h-186q-74 -154 -192 -315 q-106 -145 -136 -145q-27 0 -135 145q-120 161 -194 315h-187q25 -78 72 -178q35 -74 70 -121q70 -96 157 -190q41 -45 82 -88q0 -14 -87 -102.5t-185 -227.5q-63 -90 -121 -252q-18 -53 -45 -145z" />
<glyph unicode="y" horiz-adv-x="1148" d="M0 0v135q29 -4 49 -4q127 0 275.5 69.5t148.5 135.5q-70 78 -154 196q-96 133 -161 275q-29 57 -90 237q-68 199 -68 246q0 4 47 4q33 0 66.5 -1t62.5 -3q6 -10 60.5 -177t117.5 -292q96 -193 230 -325q129 125 235 514q6 23 70 288h168q-33 -264 -139 -528 q-131 -328 -328 -528q-238 -242 -533 -242q-14 -8 -18 -8q-12 0 -21.5 2t-17.5 6z" />
<glyph unicode="z" horiz-adv-x="1032" d="M0 84l176 180q133 137 238 307q150 240 276 584h-651v143h891q-59 -193 -94 -280q-59 -154 -146 -305q-59 -119 -196 -328q-113 -170 -189 -248h641v-137h-928z" />
<glyph unicode="{" horiz-adv-x="690" d="M0 750v141q102 0 158 61q66 74 65 252q0 33 -1 63.5t-1 59.5q0 248 162 385q135 115 307 115v-146q-197 0 -262 -151q-37 -86 -37 -283q2 -16 4 -51t2 -53q0 -133 -28 -209q-43 -115 -148 -115q102 0 146 -108q33 -82 32 -205q0 -41 -2 -68t-6 -47q0 -188 37 -276 q66 -158 262 -158v-145q-170 0 -305 114q-164 139 -164 385q0 20 2 70.5t2 79.5q0 172 -63 235q-53 53 -162 54z" />
<glyph unicode="|" horiz-adv-x="440" d="M92 0v1638h156v-1638h-156z" />
<glyph unicode="}" horiz-adv-x="829" d="M0 -43q197 0 262 156q37 86 37 278q-4 20 -6 48t-2 71q0 125 31 201q45 109 147 108q-102 0 -145 113q-31 80 -31 211q0 45 1 65.5t5 38.5q0 197 -37 283q-66 152 -262 151v146q170 0 305 -115q164 -139 164 -385q0 -37 -1 -67.5t-1 -55.5q0 -135 37 -209 q53 -104 186 -104v-141q-135 0 -188 -93q-37 -66 -37 -198q0 -27 2 -77t2 -71q0 -248 -162 -385q-135 -115 -307 -114v145z" />
<glyph unicode="~" horiz-adv-x="931" d="M0 1395v153q80 90 209 90q47 0 94 -12t141 -53q45 -18 75 -26.5t54 -8.5q49 0 98.5 27.5t96.5 74.5v-157q-88 -86 -209 -86q-49 0 -88 10t-126 50t-148 40q-49 0 -89 -19.5t-108 -82.5z" />
<glyph unicode="&#xa1;" horiz-adv-x="405" d="M25 88q0 18 25.5 309t51 581t27.5 290h47q12 -150 27 -297q25 -281 49 -561q15 -162 29 -322q0 -43 -6.5 -65.5t-32.5 -22.5h-179q-25 0 -31.5 26.5t-6.5 61.5zM41 1430v208h223v-208h-223z" />
<glyph unicode="&#xa2;" horiz-adv-x="817" d="M0 643q0 248 145 399q100 104 269 164v109h118v-84q8 4 33 4q45 0 113 -18q12 -2 31 -11v-131q-29 6 -61 12.5t-50 6.5q-31 0 -66 -19v-835q16 -10 47 -14.5t64 -4.5q43 0 58.5 1t23.5 3v-133q-31 -16 -71 -19t-66 -3h-32.5t-23.5 2v-88h-124v108q-168 55 -256 141 q-152 145 -152 410zM170 643q0 -160 94 -272q70 -84 144 -103v772q-98 -70 -168 -184.5t-70 -212.5z" />
<glyph unicode="&#xa3;" horiz-adv-x="1241" d="M0 190q111 61 176 162q76 117 76 266q0 66 -19 134h-233v159h188q-33 109 -45 172.5t-12 116.5q0 201 139.5 328t354.5 127q197 0 323.5 -106.5t159.5 -307.5l-195 -27q-16 127 -96 203t-194 76q-119 0 -199 -73.5t-80 -190.5q0 -125 59 -318h340v-159h-307 q10 -20 15.5 -42t9.5 -53q0 -104 -47 -206.5t-150 -208.5q86 23 158 22q76 0 199.5 -24.5t257.5 -49.5q68 0 208 64l60 -180q-92 -39 -154.5 -56.5t-113.5 -17.5t-160 29q-272 72 -313 75q-78 0 -166 -25.5t-164 -78.5z" />
<glyph unicode="&#xa4;" horiz-adv-x="2252" d="M586 395l139 135q-33 51 -51.5 114t-18.5 122q0 126 70 235l-139 138l114 118l140 -139q102 70 235 70t240 -70l137 139l117 -118l-139 -138q72 -109 71 -237q0 -125 -71 -234l139 -135l-117 -119l-137 140q-109 -72 -242 -72q-129 0 -233 72l-140 -140zM817 766 q0 -106 74 -182t184 -76q106 0 183 74.5t77 183.5q0 106 -74.5 183t-185.5 77q-104 0 -181 -74.5t-77 -185.5z" />
<glyph unicode="&#xa5;" horiz-adv-x="1314" d="M-2 1638h199l366 -745l357 745h213l-406 -792h342v-166h-412v-160h412v-166h-412v-354h-180v354h-416v166h416v160h-416v166h342z" />
<glyph unicode="&#xa6;" horiz-adv-x="479" d="M92 0v674h156v-674h-156zM92 965v673h156v-673h-156z" />
<glyph unicode="&#xa7;" horiz-adv-x="1142" d="M0 727q0 98 59.5 175t163.5 110q-129 123 -129 248q0 129 101.5 222t265.5 93q373 0 418 -346h-164q-18 115 -75.5 156.5t-164.5 41.5q-86 0 -145.5 -47t-59.5 -112q0 -49 37 -97q29 -37 162 -124q178 -119 356 -236q137 -119 138 -262q0 -100 -33 -152 q-47 -72 -195 -135q160 -123 160 -280q0 -133 -114.5 -230.5t-282.5 -97.5q-190 0 -301 92t-136 268h162q25 -121 94 -168q59 -41 181 -41q98 0 157.5 50.5t59.5 124.5q0 47 -37 94q-25 31 -143 110q-57 39 -222 148q-137 90 -182 129q-59 49 -95 119.5t-36 146.5zM162 748 q0 -66 47 -119q29 -39 248 -176q127 -80 188 -125q72 35 110 87t38 99q0 61 -52 121q-35 43 -266 192q-131 84 -168 115q-78 -45 -111.5 -90t-33.5 -104z" />
<glyph unicode="&#xa8;" horiz-adv-x="786" d="M0 1434v198h205v-198h-205zM410 1434v198h204v-198h-204z" />
<glyph unicode="&#xa9;" horiz-adv-x="1683" d="M0 737q0 150 55.5 300.5t154.5 249.5t246.5 152.5t299.5 53.5q147 0 295.5 -53.5t249 -155.5t154.5 -246.5t54 -300.5t-51 -297t-155.5 -245.5t-249 -157.5t-297.5 -53q-150 0 -296.5 54t-250.5 155q-100 104 -154.5 250.5t-54.5 293.5zM127 737q0 -117 51 -226.5 t141 -205.5q96 -92 207 -144t230 -52q262 0 448 196q82 88 131 203t49 229q0 129 -48 254t-132 207t-205.5 126t-242.5 44q-123 0 -234.5 -42t-202 -127t-141.5 -208t-51 -254zM360 735q0 98 29 177t82 139q111 111 295 110q131 0 218 -61.5t122 -173.5l-119 -29 q-31 74 -89 114t-136 40q-115 0 -189.5 -83t-74.5 -235q0 -154 69.5 -231.5t182.5 -77.5q92 0 159.5 52t87.5 140l123 -36q-29 -125 -127 -200t-235 -75q-176 0 -287 115t-111 315z" />
<glyph unicode="&#xab;" horiz-adv-x="1056" d="M0 649l319 455h148l-260 -455l258 -456h-146zM393 649l314 455h151l-264 -455l264 -456h-151z" />
<glyph unicode="&#xac;" horiz-adv-x="1253" d="M92 862v168h967v-606h-170v438h-797z" />
<glyph unicode="&#xad;" horiz-adv-x="724" d="M0 553v180h553v-180h-553z" />
<glyph unicode="&#xae;" horiz-adv-x="1509" d="M0 737q0 150 55.5 300.5t154.5 249.5t246.5 152.5t299.5 53.5q147 0 295.5 -53.5t249 -155.5t154.5 -246.5t54 -300.5t-51 -297t-155.5 -245.5t-249 -157.5t-297.5 -53q-150 0 -296.5 54t-250.5 155q-100 104 -154.5 250.5t-54.5 293.5zM127 737q0 -117 51 -226.5 t141 -205.5q96 -92 207 -144t230 -52q262 0 448 196q82 88 131 203t49 229q0 129 -48 254t-132 207t-205.5 126t-242.5 44q-123 0 -234.5 -42t-202 -127t-141.5 -208t-51 -254zM424 322v811h487q68 0 107 -76q33 -66 33 -144q0 -90 -63.5 -155.5t-168.5 -73.5q41 -18 70 -43 q18 -20 121 -172q33 -49 98 -147h-162q-63 100 -98 151q-106 156 -136 169t-75 17.5t-82 6.5v-344h-131zM555 778h160q123 0 159.5 28t36.5 95q0 59 -39 88q-49 35 -167 35h-150v-246z" />
<glyph unicode="&#xaf;" horiz-adv-x="1191" d="M0 1509v129h1192v-129h-1192z" />
<glyph unicode="&#xb0;" horiz-adv-x="819" d="M129 1214q0 117 80 197t197 80q113 0 194.5 -80t81.5 -197q0 -113 -81 -195.5t-195 -82.5q-113 0 -195 79.5t-82 198.5zM238 1214q0 -70 48 -120t120 -50q70 0 118.5 49.5t48.5 120.5q0 68 -48 118t-119 50q-68 0 -118 -48t-50 -120z" />
<glyph unicode="&#xb1;" horiz-adv-x="1155" d="M0 0v168h969v-168h-969zM0 664v165h399v400h170v-400h400v-165h-400v-404h-170v404h-399z" />
<glyph unicode="&#xb2;" horiz-adv-x="798" d="M0 827v27q39 131 68 176q47 76 151 137l160 90q102 74 102 168q0 66 -45 107t-123 41q-98 0 -147 -60q-39 -47 -60 -149l-96 27q0 70 56 143q90 121 266 121q109 0 187.5 -66t78.5 -170q0 -125 -137 -219q-158 -82 -195 -104q-18 -6 -71 -58q-70 -66 -70 -106 q4 -6 10 -19h463v-86h-598z" />
<glyph unicode="&#xb3;" horiz-adv-x="835" d="M0 987l74 60q27 -76 104 -117q63 -33 135 -33q92 0 149.5 45t57.5 125q0 63 -49 106.5t-106 43.5h-93v86h64q80 0 112.5 32.5t32.5 108.5q0 57 -47 95t-119 38q-94 0 -157 -78q-51 -63 -52 -121l-90 45q0 76 78 148q92 84 223 84q125 0 200 -55.5t75 -147.5 q0 -51 -23 -92q-8 -14 -82 -92q43 -29 88 -58q60 -51 60 -135q0 -98 -74 -170q-88 -86 -248 -86q-127 0 -215 55q-72 45 -98 113z" />
<glyph unicode="&#xb4;" horiz-adv-x="638" d="M0 1370l219 268h238l-307 -268h-150z" />
<glyph unicode="&#xb5;" horiz-adv-x="1130" d="M92 -410v1471h178v-719q0 -86 84 -149q78 -57 162 -58q88 0 168 55q90 61 90 152v719h176v-1063h-162v127q-53 -86 -115.5 -119t-148.5 -33q-80 0 -129 23q-61 29 -125 108v-514h-178z" />
<glyph unicode="&#xb6;" horiz-adv-x="2252" d="M451 1044q0 195 121.5 308.5t351.5 113.5h635v-174h-146v-1700h-170v1700h-223v-1700h-164v1047q-184 0 -294.5 112.5t-110.5 292.5z" />
<glyph unicode="&#xb7;" horiz-adv-x="417" d="M92 547v205h205v-205h-205z" />
<glyph unicode="&#xb8;" horiz-adv-x="602" d="M0 -281q168 0 211 12.5t43 59.5q0 27 -37 47.5t-121 20.5l54 176h133l-33 -107q82 -8 127 -48t45 -99q0 -74 -91 -132.5t-198 -58.5h-133v129z" />
<glyph unicode="&#xb9;" horiz-adv-x="442" d="M0 1479v45q2 2 45 14q76 23 119 100h67v-819h-106v660h-125z" />
<glyph unicode="&#xba;" horiz-adv-x="747" d="M45 1110q0 178 89 279.5t239 101.5q145 0 236 -99.5t91 -277.5q0 -166 -90 -270.5t-235 -104.5q-150 0 -240 98.5t-90 272.5zM193 1114q0 -119 47 -180.5t133 -61.5q84 0 132 59.5t48 188.5q0 238 -180 238q-84 0 -132 -56.5t-48 -187.5z" />
<glyph unicode="&#xbb;" horiz-adv-x="1069" d="M0 193l264 456l-264 455h152l313 -455l-313 -456h-152zM391 193l260 456l-260 455h148l319 -455l-319 -456h-148z" />
<glyph unicode="&#xbc;" horiz-adv-x="1732" d="M0 0l1321 1638h205l-1321 -1638h-205zM233 1473v47q66 14 118 38.5t91 79.5h86v-839h-137v674h-158zM934 190v95q20 178 48 331.5t60 219.5h97q-39 -150 -68 -296.5t-29 -240.5q6 -18 11 -23h301v492l102 68v-560h96v-86h-96v-190h-102v190h-420z" />
<glyph unicode="&#xbd;" horiz-adv-x="1732" d="M0 0l1321 1638h205l-1321 -1638h-205zM233 1473v47q66 14 118 38.5t91 79.5h86v-839h-137v674h-158zM860 0v27q43 121 76 168q53 74 172 133q90 43 182 88q117 72 117 162q0 59 -53.5 100t-136.5 41q-113 0 -168 -57q-43 -45 -68 -146l-111 27q0 66 64 139 q102 117 301 117q121 0 212 -64t91 -164q0 -121 -156 -213q-178 -80 -219 -100q-23 -6 -84 -55q-78 -61 -78 -103q4 -8 11 -16h526v-84h-678z" />
<glyph unicode="&#xbe;" horiz-adv-x="1732" d="M0 0l1321 1638h205l-1321 -1638h-205zM0 938l70 63q25 -80 100 -122q63 -37 127 -37q88 0 142.5 48t54.5 132q0 68 -47.5 113t-100.5 45h-88v90h61q76 0 107 32.5t31 114.5q0 59 -45 100.5t-113 41.5q-90 0 -149 -82q-49 -68 -50 -127l-86 47q0 78 74 153q88 90 213 90 q115 0 187.5 -59t72.5 -154q0 -68 -35 -120q-4 -4 -65 -74q51 -43 104 -84q37 -49 37 -119q0 -104 -70 -178q-84 -90 -235 -90q-123 0 -205 57q-68 47 -92 119zM934 190v95q20 178 48 331.5t60 219.5h97q-39 -150 -68 -296.5t-29 -240.5q6 -18 11 -23h301v492l102 68v-560 h96v-86h-96v-190h-102v190h-420z" />
<glyph unicode="&#xbf;" horiz-adv-x="829" d="M0 387q0 170 106 305q74 78 150 156q88 125 117 254q12 84 24 170h121q0 -211 -72 -381q-6 -16 -135 -254q-74 -137 -73 -250q0 -133 100 -190q78 -45 211 -45q61 0 104 5t86 15v-156q-31 -14 -116 -24q-27 -2 -78 -8q-260 0 -402.5 108.5t-142.5 294.5zM344 1446v192 h223v-192h-223z" />
<glyph unicode="&#xc0;" horiz-adv-x="1560" d="M16 0h198q77 355 201 667q131 330 269 495q85 -101 172 -281.5t161 -397.5q-34 -3 -80.5 -4t-79.5 -1q-148 0 -238 1t-179 4q-34 -80 -41 -103.5t-7 -50.5h673q51 -166 89 -329h197q-62 372 -201 702t-373 649h-186q-229 -312 -371 -649t-204 -702zM569 1630h242 l196 -249h-145z" />
<glyph unicode="&#xc1;" horiz-adv-x="1572" d="M4 0h200q77 352 203 661q132 326 271 491q86 -101 174 -280t162 -393q-34 -3 -80.5 -4t-81.5 -1q-149 0 -239.5 1t-180.5 4q-34 -80 -41 -103t-7 -50h679q52 -164 89 -326h200q-64 369 -203.5 696t-376.5 643h-187q-232 -310 -375 -644t-206 -695zM367 1362l219 268h238 l-307 -268h-150z" />
<glyph unicode="&#xc2;" horiz-adv-x="1560" d="M16 0h200q77 341 203 641q132 316 271 476q86 -98 174 -271.5t162 -381.5q-34 -3 -80.5 -3.5t-81.5 -0.5q-149 0 -239.5 0.5t-180.5 3.5q-34 -77 -41 -99.5t-7 -48.5h679q52 -159 89 -316h200q-64 357 -203.5 674t-376.5 624h-187q-232 -300 -375 -624t-206 -674z M371 1350l217 280h191l225 -280h-203l-111 170l-112 -170h-207z" />
<glyph unicode="&#xc3;" horiz-adv-x="1560" d="M16 0h202q78 358 205 673q133 333 273 500q87 -102 176 -284.5t163 -400.5q-34 -4 -81 -4.5t-82 -0.5q-150 0 -241.5 0.5t-182.5 4.5q-34 -82 -41 -105t-7 -51h685q52 -167 90 -332h201q-64 375 -205 708t-380 656h-189q-233 -316 -377.5 -656t-208.5 -708zM369 1389v153 q80 90 209 90q47 0 94 -12t141 -53q45 -18 75 -26.5t54 -8.5q49 0 98.5 27.5t96.5 74.5v-157q-88 -86 -209 -86q-49 0 -88 10t-126 50t-148 40q-49 0 -89 -19.5t-108 -82.5z" />
<glyph unicode="&#xc4;" horiz-adv-x="1560" d="M16 0h202q78 361 205 680q133 335 273 504q87 -104 176 -288t163 -404q-34 -3 -81 -4t-82 -1q-150 0 -241.5 1t-182.5 4q-34 -82 -41 -105.5t-7 -51.5h685q52 -169 90 -335h201q-64 379 -205 715t-380 661h-189q-233 -318 -377.5 -661.5t-208.5 -714.5zM393 1430v198h205 v-198h-205zM803 1430v198h204v-198h-204z" />
<glyph unicode="&#xc5;" horiz-adv-x="1548" d="M41 0h196q76 349 199 657q130 324 266 488q84 -100 170.5 -278t159.5 -391q-34 -3 -79.5 -4t-79.5 -1q-146 0 -235 1t-177 4q-34 -80 -40.5 -102.5t-6.5 -49.5h666q51 -163 88 -324h195q-62 366 -199 691t-370 640h-183q-228 -308 -368 -640t-202 -691zM567 1501 q0 56 42 95.5t105 39.5q60 0 103.5 -39.5t43.5 -98.5q0 -58 -42 -98t-105 -40q-62 0 -104.5 39.5t-42.5 101.5zM629 1501q0 -34 25 -58.5t62 -24.5q35 0 60.5 23.5t25.5 57.5q0 36 -25 59t-61 23q-34 0 -60.5 -23t-26.5 -57z" />
<glyph unicode="&#xc6;" horiz-adv-x="2592" d="M16 0q43 264 244 569q121 182 430 545t422 524h1239v-174h-780v-1298h780v-166h-1026v436h-754q0 18 45 78q35 47 60 109q59 0 256.5 -3.5t216.5 -3.5h37h28h25h74q6 2 12 7v61.5t2 71.5q0 217 -16 352q-27 217 -92 301q-18 -23 -322 -362q-256 -287 -397 -496 q-205 -305 -256 -551h-228zM1653 905v170h766v-170h-766z" />
<glyph unicode="&#xc7;" horiz-adv-x="1277" d="M2 815q0 358 217 588q238 252 668 252h98q72 -6 109 -43v-160q-104 27 -211 27q-270 0 -443 -164q-188 -180 -188 -500q0 -322 199 -502q176 -160 444 -159q100 0 199 24v-160q-20 -20 -53 -27t-85 -7h-69h-47l-21 -68q82 -8 127 -48t45 -99q0 -74 -91 -132.5t-198 -58.5 h-133v129q168 0 211 12.5t43 59.5q0 27 -36.5 47t-120.5 20l45 150q-346 49 -535 285q-174 217 -174 534z" />
<glyph unicode="&#xc8;" horiz-adv-x="1204" d="M39 1026q0 311 2 313h930v-142h-707v-1061q4 -2 97 -2h139h82h74h65h54h44h37h30h22h56.5t29.5 2v-136h-953v234.5t-1 358t-1 433.5zM339 740v139h694v-139h-694zM364 1630h242l196 -249h-145z" />
<glyph unicode="&#xc9;" horiz-adv-x="1155" d="M39 1026q0 311 1 313h862v-142h-655v-1061q3 -2 89 -2h129h76h69h60h50h41h34h28h20h52.5t27.5 2v-136h-883v234.5t-0.5 358t-0.5 433.5zM266 1362l219 268h238l-307 -268h-150zM316 740v139h643v-139h-643z" />
<glyph unicode="&#xca;" horiz-adv-x="1191" d="M38 995q0 301 2 303h896v-138h-681v-1028q3 -2 92.5 -2h134.5h78h72h63h51h43h36h29h20h55.5t27.5 2v-132h-917v227.5t-1 347.5t-1 420zM190 1350l217 280h191l225 -280h-203l-111 170l-112 -170h-207zM326 717v135h669v-135h-669z" />
<glyph unicode="&#xcb;" horiz-adv-x="1228" d="M39 1054q0 320 2 322h919v-146h-699v-1091q4 -1 95.5 -1h137.5h80h74h64h53h44h37h29h22h56t29 1v-139h-941v241.5t-1 367.5t-1 445zM217 1430v198h205v-198h-205zM334 760v143h686v-143h-686zM627 1430v198h204v-198h-204z" />
<glyph unicode="&#xcc;" horiz-adv-x="565" d="M-4 1630h242l196 -249h-145zM40 0v1351h242v-1351h-242z" />
<glyph unicode="&#xcd;" horiz-adv-x="565" d="M6 1362l219 268h238l-307 -268h-150zM40 0v1339h229v-1339h-229z" />
<glyph unicode="&#xce;" horiz-adv-x="749" d="M6 1350l217 280h191l225 -280h-203l-111 170l-112 -170h-207zM200 0v1298h242v-1298h-242z" />
<glyph unicode="&#xcf;" horiz-adv-x="761" d="M6 1418v198h205v-198h-205zM200 0v1351h242v-1351h-242zM416 1418v198h204v-198h-204z" />
<glyph unicode="&#xd0;" horiz-adv-x="1830" d="M0 745v164h262v738q4 -2 30.5 -2h55.5h27h24h62.5t46.5 2q322 0 536 -54q281 -70 431 -235q176 -195 176 -531q0 -324 -160 -528q-129 -166 -350 -246q-170 -61 -340 -61h-539v753h-262zM508 166q0 -4 47 -4q31 0 63.5 1t59.5 3q356 0 528 139q197 160 197 522 q0 266 -137 426q-190 223 -631 224h-127v-568h375v-164h-375v-579z" />
<glyph unicode="&#xd1;" horiz-adv-x="1609" d="M41 0v1389h224q70 0 333 -203q234 -180 566 -476v679h213v-1389h-213v333q0 47 -143 204t-263 253q-131 108 -263 217q-138 99 -253 143v-1150h-201zM387 1389v153q80 90 209 90q47 0 94 -12t141 -53q45 -18 75 -26.5t54 -8.5q49 0 98.5 27.5t96.5 74.5v-157 q-88 -86 -209 -86q-49 0 -88 10t-126 50t-148 40q-49 0 -89 -19.5t-108 -82.5z" />
<glyph unicode="&#xd2;" horiz-adv-x="1560" d="M0 673q0 295 184 490q190 202 498 202q277 0 479.5 -203t202.5 -489q0 -279 -165 -470q-187 -218 -517 -218q-328 0 -515 218q-167 192 -167 470zM210 673q0 -234 113 -381q127 -166 359 -165q225 0 354 163q118 151 118 383q0 248 -126 396.5t-346 148.5t-346 -148.5 t-126 -396.5zM463 1642h242l196 -249h-145z" />
<glyph unicode="&#xd3;" horiz-adv-x="1523" d="M12 659q0 290 177 482q184 198 480 198q267 0 462.5 -200t195.5 -480q0 -274 -159 -462q-180 -214 -499 -214q-316 0 -496 214q-161 189 -161 462zM214 659q0 -230 109 -374q123 -163 346 -162q217 0 342 160q114 148 114 376q0 244 -122 389.5t-334 145.5 q-211 0 -333 -145.5t-122 -389.5zM440 1362l219 268h238l-307 -268h-150z" />
<glyph unicode="&#xd4;" horiz-adv-x="1523" d="M0 639q0 281 179 467q185 192 484 192q270 0 467 -193.5t197 -465.5q0 -266 -160 -448q-182 -208 -504 -208q-319 0 -501 208q-162 183 -162 448zM204 639q0 -223 110 -363q124 -158 349 -157q219 0 345 156q115 143 115 364q0 237 -123 378t-337 141q-213 0 -336 -141 t-123 -378zM377 1350l217 280h191l225 -280h-203l-111 170l-112 -170h-207z" />
<glyph unicode="&#xd5;" horiz-adv-x="1523" d="M0 667q0 293 179 486q185 200 484 200q270 0 467 -201.5t197 -484.5q0 -277 -160 -466q-182 -216 -504 -216q-319 0 -501 216q-162 191 -162 466zM204 667q0 -232 110 -378q124 -164 349 -163q219 0 345 162q115 149 115 379q0 246 -123 393t-337 147q-213 0 -336 -147 t-123 -393zM338 1389v153q80 90 209 90q47 0 94 -12t141 -53q45 -18 75 -26.5t54 -8.5q49 0 98.5 27.5t96.5 74.5v-157q-88 -86 -209 -86q-49 0 -88 10t-126 50t-148 40q-49 0 -89 -19.5t-108 -82.5z" />
<glyph unicode="&#xd6;" horiz-adv-x="1597" d="M0 685q0 295 187 490q194 202 507 202q282 0 488 -203t206 -489q0 -279 -167 -470q-190 -218 -527 -218q-334 0 -524 218q-170 192 -170 470zM213 685q0 -234 116 -381q130 -166 365 -165q229 0 361 163q120 151 120 383q0 248 -128.5 396.5t-352.5 148.5t-352.5 -148.5 t-128.5 -396.5zM367 1430v198h205v-198h-205zM777 1430v198h204v-198h-204z" />
<glyph unicode="&#xd7;" horiz-adv-x="1069" d="M0 334l313 315l-313 314l123 120l313 -313l314 313l118 -120l-311 -314l313 -313l-120 -123l-314 313l-315 -313z" />
<glyph unicode="&#xd8;" horiz-adv-x="1468" d="M0 0l162 223q-84 113 -123 260.5t-39 317.5q0 317 152 557q188 297 536 297q127 0 224.5 -34t177.5 -97l81 114h205l-170 -237q90 -125 133 -295q37 -143 37 -305q0 -356 -139 -561q-174 -256 -549 -256q-129 0 -227.5 30.5t-179.5 89.5l-76 -104h-205zM236 801 q0 -113 13 -206t46 -183l684 956q-55 61 -126 93t-165 32q-240 0 -356 -223q-96 -184 -96 -469zM387 254q53 -59 129 -92t172 -33q223 0 346 213q107 187 107 459q0 119 -15.5 218t-52.5 193z" />
<glyph unicode="&#xd9;" horiz-adv-x="1478" d="M41 555q0 -231 115 -377q155 -195 490 -195t489 194q118 148 118 378v943h-218v-883q0 -279 -152 -394q-94 -71 -237 -71q-195 0 -295 127q-92 118 -93 338v883h-217v-943zM422 1618h242l196 -249h-145z" />
<glyph unicode="&#xda;" horiz-adv-x="1478" d="M41 550q0 -229 115 -373q155 -194 490 -194t489 192q118 147 118 375v936h-218v-876q0 -277 -152 -390q-94 -71 -237 -71q-195 0 -295 126q-92 117 -93 335v876h-217v-936zM410 1362l219 268h238l-307 -268h-150z" />
<glyph unicode="&#xdb;" horiz-adv-x="1478" d="M41 541q0 -225 117 -367q156 -190 494 -190q339 0 495 188q118 145 118 369v921h-219v-862q0 -272 -154 -384q-95 -70 -240 -70q-197 0 -297 125q-93 115 -94 329v862h-220v-921zM348 1338l217 280h191l225 -280h-203l-111 170l-112 -170h-207z" />
<glyph unicode="&#xdc;" horiz-adv-x="1478" d="M53 555q0 -231 115 -377q155 -195 490 -195t489 194q118 148 118 378v943h-218v-883q0 -279 -152 -394q-94 -71 -237 -71q-195 0 -295 127q-92 118 -93 338v883h-217v-943zM350 1430v198h205v-198h-205zM760 1430v198h204v-198h-204z" />
<glyph unicode="&#xdd;" horiz-adv-x="1366" d="M0 0v160q28 -6 58 -6q152 0 330 84t178 158q-84 91 -185 231q-117 158 -194 322q-29 61 -105 278q-82 236 -82 289q0 6 58 6q80 0 105.5 -1t46.5 -5q7 -11 68 -194q68 -208 145 -358q115 -225 275 -381q91 88 173 284q60 143 120 368q15 54 72 289h202 q-40 -307 -169 -621q-159 -389 -391 -621q-282 -282 -635 -282q-7 -9 -25 -9q-16 0 -26.5 1.5t-18.5 7.5zM424 1362l219 268h238l-307 -268h-150z" />
<glyph unicode="&#xde;" horiz-adv-x="1400" d="M92 0v1466h195v-299h358q283 0 425 -102t142 -322q0 -203 -114 -313q-137 -131 -436 -131h-375v-299h-195zM287 471h379q182 0 264 66.5t82 199.5q0 125 -70 185q-86 74 -297 73h-358v-524z" />
<glyph unicode="&#xdf;" horiz-adv-x="1314" d="M92 0v999q0 262 115 383q104 109 311 109q164 0 267.5 -84t103.5 -203q0 -53 -19.5 -108.5t-62.5 -133t-56.5 -109.5t-13.5 -56q0 -35 19 -58q31 -39 125 -102q154 -100 202 -170q43 -61 43 -156q0 -139 -102 -237.5t-264 -98.5q-121 0 -216 64.5t-147 175.5l156 74 q47 -92 95 -129t110 -37q74 0 129 51t55 123v22q0 37 -20 62q-27 31 -125 100q-152 106 -203 170q-41 51 -41 117q0 43 13.5 82t64.5 127q43 76 61.5 124t22.5 85q0 66 -56.5 111.5t-144.5 45.5q-119 0 -174 -65q-68 -82 -68 -287v-991h-180z" />
<glyph unicode="&#xe0;" d="M0 416q0 195 170 308.5t442 113.5h172l7 -156h-252q-129 0 -228.5 -79t-99.5 -187q0 -121 78 -185q94 -76 323 -75q199 0 236 55q25 37 24 266q0 459 -57 557.5t-323 98.5q-113 0 -213 -19q-70 -12 -136 -35v152q37 33 99 45q106 23 276 22q336 0 465 -149 q100 -117 100 -373v-776h-471q-254 0 -389 59q-223 98 -223 357zM543 1638h242l196 -249h-145z" />
<glyph unicode="&#xe1;" d="M0 416q0 195 170 308.5t442 113.5h172l7 -156h-252q-129 0 -228.5 -79t-99.5 -187q0 -121 78 -185q94 -76 323 -75q199 0 236 55q25 37 24 266q0 459 -57 557.5t-323 98.5q-113 0 -213 -19q-70 -12 -136 -35v152q37 33 99 45q106 23 276 22q336 0 465 -149 q100 -117 100 -373v-776h-471q-254 0 -389 59q-223 98 -223 357zM494 1370l219 268h238l-307 -268h-150z" />
<glyph unicode="&#xe2;" d="M0 416q0 195 170 308.5t442 113.5h172l7 -156h-252q-129 0 -228.5 -79t-99.5 -187q0 -121 78 -185q94 -76 323 -75q199 0 236 55q25 37 24 266q0 459 -57 557.5t-323 98.5q-113 0 -213 -19q-70 -12 -136 -35v152q37 33 99 45q106 23 276 22q336 0 465 -149 q100 -117 100 -373v-776h-471q-254 0 -389 59q-223 98 -223 357zM258 1358l217 280h191l225 -280h-203l-111 170l-112 -170h-207z" />
<glyph unicode="&#xe3;" d="M0 416q0 195 170 308.5t442 113.5h172l7 -156h-252q-129 0 -228.5 -79t-99.5 -187q0 -121 78 -185q94 -76 323 -75q199 0 236 55q25 37 24 266q0 459 -57 557.5t-323 98.5q-113 0 -213 -19q-70 -12 -136 -35v152q37 33 99 45q106 23 276 22q336 0 465 -149 q100 -117 100 -373v-776h-471q-254 0 -389 59q-223 98 -223 357zM184 1387v153q80 90 209 90q47 0 94 -12t141 -53q45 -18 75 -26.5t54 -8.5q49 0 98.5 27.5t96.5 74.5v-157q-88 -86 -209 -86q-49 0 -88 10t-126 50t-148 40q-49 0 -89 -19.5t-108 -82.5z" />
<glyph unicode="&#xe4;" d="M0 416q0 195 170 308.5t442 113.5h172l7 -156h-252q-129 0 -228.5 -79t-99.5 -187q0 -121 78 -185q94 -76 323 -75q199 0 236 55q25 37 24 266q0 459 -57 557.5t-323 98.5q-113 0 -213 -19q-70 -12 -136 -35v152q37 33 99 45q106 23 276 22q336 0 465 -149 q100 -117 100 -373v-776h-471q-254 0 -389 59q-223 98 -223 357zM221 1434v198h205v-198h-205zM631 1434v198h204v-198h-204z" />
<glyph unicode="&#xe5;" d="M0 396q0 186 162 294t421 108h164l7 -148h-240q-123 0 -218 -75.5t-95 -178.5q0 -115 74 -176q90 -72 308 -71q190 0 225 52q24 35 23 253q0 438 -54.5 531.5t-307.5 93.5q-108 0 -203 -18q-67 -11 -130 -33v145q35 31 95 43q101 21 262 21q321 0 444 -142 q95 -112 95 -356v-739h-449q-242 0 -371 56q-212 94 -212 340zM362 1458q0 74 51.5 127t129.5 53q74 0 127 -53t53 -131q0 -76 -51.5 -129t-128.5 -53q-76 0 -128.5 52t-52.5 134zM438 1458q0 -45 31 -77.5t76 -32.5q43 0 74.5 31.5t31.5 76.5q0 47 -30.5 78t-75.5 31 q-41 0 -74 -31t-33 -76z" />
<glyph unicode="&#xe6;" horiz-adv-x="1904" d="M0 416q0 195 170 308.5t442 113.5h172l7 -156h-252q-129 0 -228.5 -79t-99.5 -187q0 -121 78 -185q94 -76 323 -75q199 0 236 55q25 37 24 266q0 459 -57 557.5t-323 98.5q-113 0 -213 -19q-70 -12 -136 -35v152q37 33 99 45q106 23 276 22q211 0 338 -57 q115 -51 170 -156q90 109 218 169.5t278 60.5h178v-180h-121q-180 0 -289 -64q-164 -96 -188 -332h477v-180h-477q27 -233 188 -330q113 -66 289 -65h121v-180h-178q-125 0 -238 44t-201 126v-154h-471q-254 0 -389 59q-223 98 -223 357z" />
<glyph unicode="&#xe7;" horiz-adv-x="1024" d="M0 649q0 283 187.5 474.5t461.5 191.5h178v-180h-120q-195 0 -308 -78q-170 -117 -170 -408t168 -407q113 -78 310 -78h120v-180h-174l-4 -15q82 -8 127 -48t45 -99q0 -74 -91 -132.5t-198 -58.5h-133v129q168 0 211 12.5t43 59.5q0 27 -36.5 47.5t-120.5 20.5l28 96 q-227 43 -375.5 224t-148.5 429z" />
<glyph unicode="&#xe8;" d="M0 649q0 283 187.5 474.5t461.5 191.5h178v-180h-120q-180 0 -289 -64q-164 -96 -189 -332h478v-180h-478q27 -233 189 -330q113 -66 289 -65h120v-180h-178q-274 0 -461.5 191t-187.5 474zM545 1638h242l196 -249h-145z" />
<glyph unicode="&#xe9;" d="M0 649q0 283 187.5 474.5t461.5 191.5h178v-180h-120q-180 0 -289 -64q-164 -96 -189 -332h478v-180h-478q27 -233 189 -330q113 -66 289 -65h120v-180h-178q-274 0 -461.5 191t-187.5 474zM498 1370l219 268h238l-307 -268h-150z" />
<glyph unicode="&#xea;" d="M0 649q0 283 187.5 474.5t461.5 191.5h178v-180h-120q-180 0 -289 -64q-164 -96 -189 -332h478v-180h-478q27 -233 189 -330q113 -66 289 -65h120v-180h-178q-274 0 -461.5 191t-187.5 474zM285 1358l217 280h191l225 -280h-203l-111 170l-112 -170h-207z" />
<glyph unicode="&#xeb;" d="M0 649q0 283 187.5 474.5t461.5 191.5h178v-180h-120q-180 0 -289 -64q-164 -96 -189 -332h478v-180h-478q27 -233 189 -330q113 -66 289 -65h120v-180h-178q-274 0 -461.5 191t-187.5 474zM260 1434v198h205v-198h-205zM670 1434v198h204v-198h-204z" />
<glyph unicode="&#xec;" horiz-adv-x="540" d="M-19 1638h242l196 -249h-145zM41 0v1298h231v-1298h-231z" />
<glyph unicode="&#xed;" horiz-adv-x="516" d="M-68 1370l219 268h238l-307 -268h-150zM41 0v1298h231v-1298h-231z" />
<glyph unicode="&#xee;" horiz-adv-x="761" d="M4 1346l217 280h191l225 -280h-203l-111 170l-112 -170h-207zM201 12v1298h231v-1298h-231z" />
<glyph unicode="&#xef;" horiz-adv-x="737" d="M4 1434v198h205v-198h-205zM201 0v1298h231v-1298h-231zM414 1434v198h204v-198h-204z" />
<glyph unicode="&#xf0;" horiz-adv-x="1155" d="M0 524q0 256 125 401.5t326 145.5q59 0 100 -11t113 -48q-35 66 -64 110.5t-78 102.5l-276 -127l-43 102l237 109q-90 86 -207 166h218q41 -31 51 -39q41 -33 73 -64l216 103l45 -103l-172 -84q319 -367 319 -760q0 -248 -135 -396t-359 -148q-221 0 -348 127 q-141 141 -141 413zM182 520q0 -184 85 -286.5t222 -102.5q133 0 220.5 105.5t87.5 300.5q0 190 -90.5 292.5t-223.5 102.5t-213 -98q-88 -109 -88 -314z" />
<glyph unicode="&#xf1;" horiz-adv-x="1302" d="M41 0v1298h211v-1298h-211zM166 1387v153q80 90 209 90q47 0 94 -12t141 -53q45 -18 75 -26.5t54 -8.5q49 0 98.5 27.5t96.5 74.5v-157q-88 -86 -209 -86q-49 0 -88 10t-126 50t-148 40q-49 0 -89 -19.5t-108 -82.5zM334 1155v129q27 12 87 21.5t134 9.5q309 0 457 -228 q114 -177 114 -456q0 -111 -28 -326q-37 -274 -82 -305h-207q41 129 69.5 296t28.5 335q0 283 -110 416q-102 125 -305 124q-70 0 -158 -16z" />
<glyph unicode="&#xf2;" horiz-adv-x="1462" d="M0 676q0 313 217 489q184 150 426 150t424 -148q219 -178 219 -491q0 -289 -158 -479q-176 -213 -485 -213q-319 0 -491 211q-152 186 -152 481zM227 676q0 -246 109.5 -386t306.5 -140q184 0 300 143t116 383q0 152 -78 289q-113 199 -338 198q-225 0 -338 -198 q-78 -137 -78 -289zM461 1626h242l196 -249h-145z" />
<glyph unicode="&#xf3;" horiz-adv-x="1486" d="M0 676q0 313 217 489q184 150 426 150t424 -148q219 -178 219 -491q0 -289 -158 -479q-176 -213 -485 -213q-319 0 -491 211q-152 186 -152 481zM227 676q0 -246 109.5 -386t306.5 -140q184 0 300 143t116 383q0 152 -78 289q-113 199 -338 198q-225 0 -338 -198 q-78 -137 -78 -289zM500 1370l219 268h238l-307 -268h-150z" />
<glyph unicode="&#xf4;" horiz-adv-x="1486" d="M0 676q0 313 217 489q184 150 426 150t424 -148q219 -178 219 -491q0 -289 -158 -479q-176 -213 -485 -213q-319 0 -491 211q-152 186 -152 481zM227 676q0 -246 109.5 -386t306.5 -140q184 0 300 143t116 383q0 152 -78 289q-113 199 -338 198q-225 0 -338 -198 q-78 -137 -78 -289zM324 1358l217 280h191l225 -280h-203l-111 170l-112 -170h-207z" />
<glyph unicode="&#xf5;" horiz-adv-x="1486" d="M0 676q0 313 217 489q184 150 426 150t424 -148q219 -178 219 -491q0 -289 -158 -479q-176 -213 -485 -213q-319 0 -491 211q-152 186 -152 481zM227 676q0 -246 109.5 -386t306.5 -140q184 0 300 143t116 383q0 152 -78 289q-113 199 -338 198q-225 0 -338 -198 q-78 -137 -78 -289zM250 1387v153q80 90 209 90q47 0 94 -12t141 -53q45 -18 75 -26.5t54 -8.5q49 0 98.5 27.5t96.5 74.5v-157q-88 -86 -209 -86q-49 0 -88 10t-126 50t-148 40q-49 0 -89 -19.5t-108 -82.5z" />
<glyph unicode="&#xf6;" horiz-adv-x="1486" d="M0 676q0 313 217 489q184 150 426 150t424 -148q219 -178 219 -491q0 -289 -158 -479q-176 -213 -485 -213q-319 0 -491 211q-152 186 -152 481zM227 676q0 -246 109.5 -386t306.5 -140q184 0 300 143t116 383q0 152 -78 289q-113 199 -338 198q-225 0 -338 -198 q-78 -137 -78 -289zM299 1434v198h205v-198h-205zM709 1434v198h204v-198h-204z" />
<glyph unicode="&#xf7;" horiz-adv-x="1155" d="M0 575v168h969v-168h-969zM381 256v205h205v-205h-205zM381 858v205h205v-205h-205z" />
<glyph unicode="&#xf8;" horiz-adv-x="1474" d="M0 0l158 188q-78 92 -118 220.5t-40 267.5q0 313 217 489q184 150 426 150q92 0 185.5 -25.5t179.5 -79.5l73 88h205l-158 -188q76 -80 117 -187.5t41 -246.5q0 -289 -158 -479q-176 -213 -485 -213q-109 0 -202 25.5t-167 74.5l-69 -84h-205zM227 676q0 -193 68 -322 l598 719q-47 43 -108.5 66.5t-141.5 23.5q-225 0 -338 -198q-78 -137 -78 -289zM397 229q102 -80 246 -79q184 0 300 143t116 383v22q0 63 -10 111q-16 74 -58 135z" />
<glyph unicode="&#xf9;" d="M0 668q0 111 29 325q37 274 82 305h206q-41 -129 -69.5 -295.5t-28.5 -334.5q0 -283 111 -416q102 -125 305 -125q70 0 158 16v-129q-27 -12 -87.5 -21t-134.5 -9q-309 0 -456 227q-115 178 -115 457zM409 1638h242l196 -249h-145zM874 0v1298h211v-1298h-211z" />
<glyph unicode="&#xfa;" d="M0 668q0 111 29 325q37 274 82 305h206q-41 -129 -69.5 -295.5t-28.5 -334.5q0 -283 111 -416q102 -125 305 -125q70 0 158 16v-129q-27 -12 -87.5 -21t-134.5 -9q-309 0 -456 227q-115 178 -115 457zM473 1370l219 268h238l-307 -268h-150zM874 0v1298h211v-1298h-211z " />
<glyph unicode="&#xfb;" d="M0 668q0 111 29 325q37 274 82 305h206q-41 -129 -69.5 -295.5t-28.5 -334.5q0 -283 111 -416q102 -125 305 -125q70 0 158 16v-129q-27 -12 -87.5 -21t-134.5 -9q-309 0 -456 227q-115 178 -115 457zM315 1358l217 280h191l225 -280h-203l-111 170l-112 -170h-207z M874 0v1298h211v-1298h-211z" />
<glyph unicode="&#xfc;" d="M0 668q0 111 29 325q37 274 82 305h206q-41 -129 -69.5 -295.5t-28.5 -334.5q0 -283 111 -416q102 -125 305 -125q70 0 158 16v-129q-27 -12 -87.5 -21t-134.5 -9q-309 0 -456 227q-115 178 -115 457zM315 1434v198h205v-198h-205zM725 1434v198h204v-198h-204zM874 0 v1298h211v-1298h-211z" />
<glyph unicode="&#xfd;" horiz-adv-x="1024" d="M0 0v135q29 -4 49 -4q127 0 275.5 69.5t148.5 135.5q-70 78 -154 196q-96 133 -161 275q-29 57 -90 237q-68 199 -68 246q0 4 47 4q33 0 66.5 -1t62.5 -3q6 -10 60.5 -177t117.5 -292q96 -193 230 -325q129 125 235 514q6 23 70 288h168q-33 -264 -139 -528 q-131 -328 -328 -528q-238 -242 -533 -242q-14 -8 -18 -8q-12 0 -21.5 2t-17.5 6zM406 1370l219 268h238l-307 -268h-150z" />
<glyph unicode="&#xfe;" horiz-adv-x="1105" d="M0 -322v1874h180v-516q76 82 140.5 108.5t150.5 26.5q195 0 323 -154.5t128 -391.5q0 -238 -134.5 -401t-326.5 -163q-86 0 -135 21q-66 27 -146 115v-519h-180zM164 610q0 -203 83 -301t199 -98q127 0 205 100q86 111 86 316q0 195 -78.5 299t-203.5 104 q-119 0 -201 -104q-90 -117 -90 -316z" />
<glyph unicode="&#xff;" horiz-adv-x="1024" d="M0 0v135q29 -4 49 -4q127 0 275.5 69.5t148.5 135.5q-70 78 -154 196q-96 133 -161 275q-29 57 -90 237q-68 199 -68 246q0 4 47 4q33 0 66.5 -1t62.5 -3q6 -10 60.5 -177t117.5 -292q96 -193 230 -325q129 125 235 514q6 23 70 288h168q-33 -264 -139 -528 q-131 -328 -328 -528q-238 -242 -533 -242q-14 -8 -18 -8q-12 0 -21.5 2t-17.5 6zM250 1434v198h205v-198h-205zM660 1434v198h204v-198h-204z" />
<glyph unicode="&#x152;" horiz-adv-x="1376" d="M0 817q0 358 133 598t354 240q82 0 170 -66q78 -57 148 -159v208h797v-174h-625v-1298q0 -4 176 -4q119 0 243 1t226 3v-166h-817v199q-72 -94 -137 -144q-88 -66 -181 -65q-236 0 -368 260q-119 231 -119 567zM152 817q0 -285 79 -461q90 -201 256 -200q162 0 254 198 q84 182 84 463q0 303 -89 481.5t-249 178.5q-158 0 -246.5 -178.5t-88.5 -481.5zM1067 911v170h612v-170h-612z" />
<glyph unicode="&#x153;" horiz-adv-x="0" d="M0 655q0 313 174 490q147 150 342 149q117 0 225 -61q123 -70 197 -197q72 131 184.5 208t245.5 77h143v-180h-98q-150 0 -242 -64q-139 -96 -139 -332h381v-180h-381q20 -233 152 -329q90 -66 229 -66h98v-180h-143q-129 0 -238.5 70.5t-181.5 195.5q-63 -137 -168 -211 q-115 -82 -264 -82q-256 0 -393 211q-123 188 -123 481zM182 655q0 -244 88 -385t246 -141q150 0 241 142t91 384q0 152 -62 289q-90 199 -270 199t-270 -199q-63 -139 -64 -289z" />
<glyph unicode="&#x178;" horiz-adv-x="1366" d="M0 0v159q29 -6 62 -6q162 0 352 83t190 157q-89 91 -197 229q-125 157 -207 319q-32 61 -113 276q-87 235 -87 287q0 6 62 6q85 0 112.5 -1t49.5 -5q8 -11 73 -193q73 -205 155 -355q123 -223 293 -377q97 86 186 281q64 142 127 365q17 54 77 287h216 q-43 -305 -180 -616q-170 -386 -418 -616q-301 -280 -678 -280q-8 -9 -27 -9q-17 0 -28.5 1.5t-19.5 7.5zM369 1430v198h205v-198h-205zM779 1430v198h204v-198h-204z" />
<glyph unicode="&#x2c6;" horiz-adv-x="681" d="M0 1358l217 280h191l225 -280h-203l-111 170l-112 -170h-207z" />
<glyph unicode="&#x2dc;" horiz-adv-x="931" d="M0 1055v153q80 90 209 90q47 0 94 -12t141 -53q45 -18 75 -26.5t54 -8.5q49 0 98.5 27.5t96.5 74.5v-157q-88 -86 -209 -86q-49 0 -88 10t-126 50t-148 40q-49 0 -89 -19.5t-108 -82.5z" />
<glyph unicode="&#x2000;" horiz-adv-x="913" />
<glyph unicode="&#x2001;" horiz-adv-x="1827" />
<glyph unicode="&#x2002;" horiz-adv-x="913" />
<glyph unicode="&#x2003;" horiz-adv-x="1827" />
<glyph unicode="&#x2004;" horiz-adv-x="609" />
<glyph unicode="&#x2005;" horiz-adv-x="456" />
<glyph unicode="&#x2006;" horiz-adv-x="304" />
<glyph unicode="&#x2007;" horiz-adv-x="304" />
<glyph unicode="&#x2008;" horiz-adv-x="228" />
<glyph unicode="&#x2009;" horiz-adv-x="365" />
<glyph unicode="&#x200a;" horiz-adv-x="101" />
<glyph unicode="&#x2010;" horiz-adv-x="731" d="M92 440v181h553v-181h-553z" />
<glyph unicode="&#x2011;" horiz-adv-x="731" d="M92 440v181h553v-181h-553z" />
<glyph unicode="&#x2012;" horiz-adv-x="731" d="M92 440v181h553v-181h-553z" />
<glyph unicode="&#x2013;" horiz-adv-x="1390" d="M-4 459v143h1395v-143h-1395z" />
<glyph unicode="&#x2014;" horiz-adv-x="1736" d="M0 459v143h1737v-143h-1737z" />
<glyph unicode="&#x2018;" horiz-adv-x="450" d="M92 1188v205l119 192h76v-45l-51 -102v-45h61v-205h-205z" />
<glyph unicode="&#x2019;" horiz-adv-x="399" d="M92 1434v204h205v-204l-119 -193h-76v45l52 103v45h-62z" />
<glyph unicode="&#x201a;" horiz-adv-x="399" d="M92 0v205h205v-205l-119 -193h-76v46l52 102v45h-62z" />
<glyph unicode="&#x201c;" horiz-adv-x="860" d="M92 1188v205l119 192h76v-45l-51 -102v-45h61v-205h-205zM502 1188v205l119 192h75v-45l-51 -102v-45h62v-205h-205z" />
<glyph unicode="&#x201d;" horiz-adv-x="890" d="M92 1434v204h205v-204l-119 -193h-76v45l52 103v45h-62zM502 1434v204h205v-204l-119 -193h-76v45l51 103v45h-61z" />
<glyph unicode="&#x201e;" horiz-adv-x="798" d="M92 0v205h205v-205l-119 -193h-76v46l52 102v45h-62zM440 0v205h205v-205l-119 -193h-75v46l51 102v45h-62z" />
<glyph unicode="&#x2022;" horiz-adv-x="716" d="M109 719q0 104 75.5 178t177.5 74q106 0 180 -74t74 -178q0 -106 -73.5 -180t-180.5 -74q-104 0 -178.5 72.5t-74.5 181.5z" />
<glyph unicode="&#x2026;" horiz-adv-x="1843" d="M92 0v205h205v-205h-205zM774 0v205h205v-205h-205zM1456 0v205h207v-205h-207z" />
<glyph unicode="&#x202f;" horiz-adv-x="365" />
<glyph unicode="&#x2039;" horiz-adv-x="638" d="M0 649l315 457h148l-264 -457l264 -454h-148z" />
<glyph unicode="&#x203a;" horiz-adv-x="696" d="M92 72l264 458l-264 453h150l303 -446l-303 -465h-150z" />
<glyph unicode="&#x205f;" horiz-adv-x="456" />
<glyph unicode="&#x2122;" horiz-adv-x="1044" d="M92 1239v59h334v-59h-133v-348h-68v348h-133zM471 891v407h100l103 -325l100 325h98v-407h-63v342l-104 -342h-62l-108 348v-348h-64z" />
<glyph unicode="&#x25fc;" horiz-adv-x="1300" d="M0 0v1300h1300v-1300h-1300z" />
</font>
</defs>
</svg>
